<svg width="45" height="45" viewBox="0 0 45 45" fill="none" xmlns="http://www.w3.org/2000/svg">
<g filter="url(#filter0_iii_650_7)">
<path d="M40.9628 4.34427C39.6203 2.81539 37.6253 1.8645 35.4253 1.8645C33.337 1.8645 31.4352 2.72217 30.0742 4.12053C29.2911 4.92226 28.6945 5.8918 28.3402 6.9732C28.0978 7.71899 27.9673 8.50208 27.9673 9.32245C27.9673 10.7208 28.3588 12.0446 29.0487 13.1633C29.4216 13.7972 29.9064 14.3752 30.4657 14.86C31.7709 16.0533 33.5048 16.7804 35.4253 16.7804C36.2456 16.7804 37.0287 16.6499 37.7559 16.3889C39.4712 15.8482 40.9068 14.6735 41.8018 13.1633C42.1933 12.5294 42.4917 11.8022 42.6595 11.0564C42.8086 10.4971 42.8832 9.91909 42.8832 9.32245C42.8832 7.42068 42.1561 5.66806 40.9628 4.34427ZM38.2033 10.6835H36.8236V12.1378C36.8236 12.9023 36.1897 13.5362 35.4253 13.5362C34.6608 13.5362 34.0269 12.9023 34.0269 12.1378V10.6835H32.6472C31.8827 10.6835 31.2488 10.0496 31.2488 9.28516C31.2488 8.52072 31.8827 7.8868 32.6472 7.8868H34.0269V6.56301C34.0269 5.79857 34.6608 5.16464 35.4253 5.16464C36.1897 5.16464 36.8236 5.79857 36.8236 6.56301V7.8868H38.2033C38.9678 7.8868 39.6017 8.52072 39.6017 9.28516C39.6017 10.0496 38.9864 10.6835 38.2033 10.6835Z" fill="url(#paint0_linear_650_7)" fill-opacity="0.65"/>
<path d="M41.0187 22.3739C41.0187 19.9314 40.5526 17.5821 39.6763 15.438C39.0983 15.8482 38.4457 16.1651 37.7559 16.3889C37.5508 16.4634 37.3457 16.5194 37.1219 16.5753C37.8304 18.3652 38.222 20.3229 38.222 22.3739C38.222 26.6995 36.4694 30.6335 33.6353 33.5049C33.0946 32.815 32.4048 32.1811 31.5844 31.6404C26.5316 28.247 18.2533 28.247 13.1633 31.6404C12.3429 32.1811 11.6717 32.815 11.1123 33.5049C8.27831 30.6335 6.52569 26.6995 6.52569 22.3739C6.52569 13.6294 13.6294 6.52572 22.3738 6.52572C24.4061 6.52572 26.3638 6.91726 28.1537 7.62577C28.2097 7.40203 28.2656 7.19694 28.3402 6.9732C28.5639 6.28334 28.8809 5.64941 29.3097 5.07142C27.1656 4.19511 24.8163 3.72899 22.3738 3.72899C12.1005 3.72899 3.72896 12.1005 3.72896 22.3739C3.72896 27.7809 6.05957 32.6472 9.75125 36.0592C9.75125 36.0779 9.75125 36.0779 9.73261 36.0965C9.91906 36.2829 10.1428 36.4321 10.3292 36.5999C10.4411 36.6931 10.5343 36.7864 10.6462 36.8609C10.9818 37.1406 11.3547 37.4016 11.709 37.6627C11.8395 37.7559 11.9513 37.8305 12.0819 37.9237C12.4361 38.1661 12.809 38.3898 13.2006 38.5949C13.3311 38.6695 13.4802 38.7627 13.6107 38.8373C13.9836 39.0424 14.3752 39.2288 14.7854 39.3966C14.9345 39.4712 15.0837 39.5458 15.2328 39.6017C15.643 39.7695 16.0532 39.9187 16.4634 40.0492C16.6126 40.1051 16.7617 40.1611 16.9109 40.1984C17.3584 40.3289 17.8058 40.4408 18.2533 40.5526C18.3838 40.5899 18.5143 40.6272 18.6635 40.6459C19.1856 40.7577 19.7076 40.8323 20.2483 40.8882C20.3229 40.8882 20.3975 40.9069 20.4721 40.9255C21.106 40.9815 21.7399 41.0187 22.3738 41.0187C23.0078 41.0187 23.6417 40.9815 24.257 40.9255C24.3316 40.9255 24.4061 40.9069 24.4807 40.8882C25.0214 40.8323 25.5435 40.7577 26.0655 40.6459C26.196 40.6272 26.3266 40.5713 26.4757 40.5526C26.9232 40.4408 27.3893 40.3475 27.8181 40.1984C27.9673 40.1424 28.1165 40.0865 28.2656 40.0492C28.6758 39.9001 29.1046 39.7695 29.4962 39.6017C29.6453 39.5458 29.7945 39.4712 29.9437 39.3966C30.3352 39.2288 30.7267 39.0424 31.1183 38.8373C31.2674 38.7627 31.398 38.6695 31.5285 38.5949C31.9014 38.3712 32.2743 38.1661 32.6472 37.9237C32.7777 37.8491 32.8895 37.7559 33.0201 37.6627C33.393 37.4016 33.7472 37.1406 34.0828 36.8609C34.1947 36.7677 34.2879 36.6745 34.3998 36.5999C34.6049 36.4321 34.81 36.2643 34.9964 36.0965C34.9964 36.0779 34.9964 36.0779 34.9778 36.0592C38.6881 32.6472 41.0187 27.7809 41.0187 22.3739Z" fill="url(#paint1_linear_650_7)" fill-opacity="0.65"/>
<path d="M22.3738 12.9203C18.5143 12.9203 15.382 16.0527 15.382 19.9122C15.382 23.6971 18.3465 26.7735 22.2806 26.8854H22.6162C26.3825 26.7549 29.347 23.6971 29.3657 19.9122C29.3657 16.0527 26.2333 12.9203 22.3738 12.9203Z" fill="url(#paint2_linear_650_7)" fill-opacity="0.65"/>
</g>
<path d="M22.3735 4.22876C24.5349 4.22876 26.6189 4.6046 28.5444 5.31177C28.4806 5.42103 28.4184 5.5313 28.3598 5.6438C28.1619 6.01724 27.998 6.4076 27.8657 6.8147C27.8486 6.86607 27.8342 6.91734 27.8188 6.96704C26.1146 6.35937 24.2756 6.02563 22.3735 6.02563C13.3531 6.02582 6.02583 13.3538 6.02583 22.3743C6.02594 26.8374 7.83471 30.8955 10.7563 33.8557L11.1489 34.2542L11.5004 33.8196C12.0302 33.1662 12.6641 32.568 13.4379 32.0579L13.4409 32.0559C15.8871 30.4253 19.1275 29.595 22.3881 29.595C25.649 29.595 28.8794 30.4261 31.3061 32.0559L31.309 32.0579C32.0873 32.5708 32.7364 33.1691 33.2417 33.8137L33.5922 34.26L33.9917 33.8557C36.9132 30.8956 38.722 26.8373 38.7221 22.3743C38.7221 20.4544 38.3881 18.6128 37.7797 16.9075C37.828 16.8914 37.8764 16.8758 37.9243 16.8586C38.0014 16.8335 38.0784 16.8079 38.1547 16.7805C38.6009 16.6226 39.0275 16.4244 39.4311 16.1907C40.1413 18.1197 40.519 20.2081 40.519 22.3743C40.5189 27.6339 38.252 32.3693 34.6391 35.6917L34.2553 36.0442L34.27 36.0588L34.0835 36.2131C33.9553 36.3052 33.8221 36.4277 33.7631 36.4768C33.4425 36.744 33.0999 36.9963 32.7329 37.2532L32.729 37.2561C32.559 37.3776 32.5007 37.4313 32.3989 37.4895L32.3872 37.4963L32.3745 37.5042C32.0132 37.739 31.6718 37.926 31.2807 38.1604C31.205 38.2037 31.1251 38.2551 31.0668 38.2913C31.0026 38.3312 30.9483 38.3632 30.895 38.3899L30.8862 38.3948C30.5058 38.594 30.1257 38.7743 29.7465 38.9368L29.7329 38.9426L29.7202 38.9495C29.5663 39.0264 29.441 39.089 29.3208 39.134L29.2993 39.1418C28.9282 39.3009 28.5524 39.4137 28.1137 39.5725C27.9477 39.6163 27.7874 39.6757 27.6538 39.7258C27.2536 39.865 26.8349 39.9469 26.3559 40.0667C26.2654 40.0818 26.1857 40.1022 26.1303 40.1174C26.0524 40.1389 26.0213 40.1468 25.9946 40.1506L25.978 40.1536L25.9604 40.1565C25.4607 40.2636 24.9574 40.3362 24.4292 40.3909L24.394 40.3948L24.3598 40.4036C24.3201 40.4135 24.2969 40.4183 24.2768 40.4221C24.2661 40.4241 24.2598 40.4248 24.2573 40.425H24.2338L24.2114 40.428C23.6067 40.4829 22.9882 40.5188 22.3735 40.5188C21.7675 40.5188 21.158 40.4828 20.5424 40.429C20.4813 40.4142 20.3941 40.395 20.2983 40.3899C19.7705 40.3353 19.2673 40.2635 18.768 40.1565L18.7475 40.1526L18.7251 40.1497C18.6198 40.1365 18.5246 40.1097 18.3911 40.0715L18.3823 40.0696L18.3745 40.0676L17.7085 39.8987C17.4882 39.8413 17.2696 39.7817 17.0512 39.718L17.0415 39.7161L17.0317 39.7131C16.9152 39.684 16.7932 39.6391 16.6391 39.5813L16.6274 39.5764L16.6147 39.5725C16.2178 39.4462 15.8203 39.3017 15.4223 39.1389L15.4155 39.136L15.4086 39.134L15.2211 39.053C15.1557 39.0223 15.086 38.9878 15.0092 38.9495L14.9917 38.9407L14.9751 38.9338L14.6831 38.8098C14.4911 38.725 14.304 38.6357 14.1215 38.5422L13.852 38.3997C13.794 38.3664 13.7309 38.3284 13.6626 38.2874C13.5937 38.2461 13.5193 38.2008 13.4487 38.1604L13.4409 38.1565L13.4321 38.1516C13.0576 37.9554 12.7012 37.7419 12.3637 37.511C12.2983 37.4644 12.2379 37.4221 12.1801 37.3821C12.1211 37.3412 12.065 37.3025 12.0053 37.26C11.6375 36.989 11.2866 36.7437 10.9663 36.4768L10.9458 36.4602L10.9233 36.4446C10.8422 36.3904 10.8093 36.3509 10.6626 36.2278H10.6635C10.5559 36.1309 10.4363 36.039 10.3422 35.9641C10.31 35.9384 10.2803 35.9127 10.2514 35.8889V35.8401L10.0903 35.6917C6.49552 32.369 4.22907 27.6338 4.22896 22.3743C4.22896 12.3772 12.3765 4.22895 22.3735 4.22876ZM22.3735 13.4202C25.8449 13.4202 28.6829 16.1499 28.8569 19.5784L28.8657 19.9124C28.847 23.4231 26.1037 26.2554 22.6157 26.385H22.2807C18.6198 26.2738 15.8824 23.4176 15.8823 19.9124C15.8823 16.3291 18.7903 13.4204 22.3735 13.4202ZM35.4252 2.3645C37.4798 2.3645 39.3388 3.25207 40.5874 4.67407L40.5913 4.67896C41.7056 5.91516 42.3833 7.55002 42.3833 9.32251C42.3833 9.87697 42.3138 10.412 42.1762 10.928L42.1743 10.9368L42.1713 10.9465C42.0157 11.6382 41.7388 12.3139 41.3764 12.9006L41.3715 12.9084C40.9319 13.6503 40.3515 14.3036 39.6684 14.8303L39.3872 15.0305C38.8547 15.4084 38.2485 15.7036 37.602 15.9133L37.5874 15.9182C37.5775 15.9217 37.5669 15.9245 37.5571 15.928C37.3852 15.9889 37.2079 16.0382 37.0004 16.0901L36.8032 16.1389C36.3622 16.2322 35.9019 16.2805 35.4252 16.2805C33.7461 16.2805 32.2218 15.6853 31.0356 14.6946L30.8032 14.4905L30.7934 14.4817L30.602 14.3098C30.1631 13.8975 29.7816 13.4222 29.4799 12.9094L29.4741 12.9006C28.8324 11.86 28.4673 10.627 28.4672 9.32251C28.4672 8.55624 28.5893 7.8254 28.8159 7.12817V7.1272L28.8149 7.12622C28.9295 6.77689 29.0729 6.44066 29.2397 6.11841C29.3775 5.85764 29.5343 5.6081 29.7114 5.36938L30.0952 4.85181L30.0903 4.84985C30.2 4.71975 30.3129 4.59203 30.4321 4.46997V4.46899C31.7021 3.16417 33.4763 2.3645 35.4252 2.3645ZM35.4252 4.66431C34.3848 4.66431 33.527 5.52228 33.5268 6.56274V7.38696H32.6469C31.6065 7.38709 30.7485 8.2449 30.7485 9.2854C30.7486 10.3258 31.6065 11.1837 32.6469 11.1838H33.5268V12.1379C33.5269 13.1785 34.3847 14.0364 35.4252 14.0364C36.4658 14.0364 37.3236 13.1785 37.3237 12.1379V11.1838H38.2036C39.2669 11.1837 40.1019 10.3214 40.102 9.2854C40.102 8.24489 39.244 7.38709 38.2036 7.38696H37.3237V6.56274C37.3235 5.52228 36.4657 4.66431 35.4252 4.66431Z" stroke="url(#paint3_linear_650_7)" stroke-opacity="0.5"/>
<defs>
<filter id="filter0_iii_650_7" x="1.72896" y="-0.135498" width="42.1543" height="43.1543" filterUnits="userSpaceOnUse" color-interpolation-filters="sRGB">
<feFlood flood-opacity="0" result="BackgroundImageFix"/>
<feBlend mode="normal" in="SourceGraphic" in2="BackgroundImageFix" result="shape"/>
<feColorMatrix in="SourceAlpha" type="matrix" values="0 0 0 0 0 0 0 0 0 0 0 0 0 0 0 0 0 0 127 0" result="hardAlpha"/>
<feOffset dx="1" dy="2"/>
<feGaussianBlur stdDeviation="1"/>
<feComposite in2="hardAlpha" operator="arithmetic" k2="-1" k3="1"/>
<feColorMatrix type="matrix" values="0 0 0 0 1 0 0 0 0 1 0 0 0 0 1 0 0 0 0.67 0"/>
<feBlend mode="normal" in2="shape" result="effect1_innerShadow_650_7"/>
<feColorMatrix in="SourceAlpha" type="matrix" values="0 0 0 0 0 0 0 0 0 0 0 0 0 0 0 0 0 0 127 0" result="hardAlpha"/>
<feOffset dy="-3"/>
<feGaussianBlur stdDeviation="1"/>
<feComposite in2="hardAlpha" operator="arithmetic" k2="-1" k3="1"/>
<feColorMatrix type="matrix" values="0 0 0 0 0 0 0 0 0 0 0 0 0 0 0 0 0 0 0.23 0"/>
<feBlend mode="normal" in2="effect1_innerShadow_650_7" result="effect2_innerShadow_650_7"/>
<feColorMatrix in="SourceAlpha" type="matrix" values="0 0 0 0 0 0 0 0 0 0 0 0 0 0 0 0 0 0 127 0" result="hardAlpha"/>
<feOffset dx="-2" dy="-2"/>
<feGaussianBlur stdDeviation="1"/>
<feComposite in2="hardAlpha" operator="arithmetic" k2="-1" k3="1"/>
<feColorMatrix type="matrix" values="0 0 0 0 0.89979 0 0 0 0 0.89979 0 0 0 0 0.89979 0 0 0 0.25 0"/>
<feBlend mode="normal" in2="effect2_innerShadow_650_7" result="effect3_innerShadow_650_7"/>
</filter>
<linearGradient id="paint0_linear_650_7" x1="18.9304" y1="13.3868" x2="35.1363" y2="43.994" gradientUnits="userSpaceOnUse">
<stop stop-color="white"/>
<stop offset="1" stop-color="white" stop-opacity="0"/>
</linearGradient>
<linearGradient id="paint1_linear_650_7" x1="18.9304" y1="13.3868" x2="35.1363" y2="43.994" gradientUnits="userSpaceOnUse">
<stop stop-color="white"/>
<stop offset="1" stop-color="white" stop-opacity="0"/>
</linearGradient>
<linearGradient id="paint2_linear_650_7" x1="18.9304" y1="13.3868" x2="35.1363" y2="43.994" gradientUnits="userSpaceOnUse">
<stop stop-color="white"/>
<stop offset="1" stop-color="white" stop-opacity="0"/>
</linearGradient>
<linearGradient id="paint3_linear_650_7" x1="13.2906" y1="-0.844509" x2="28.7623" y2="39.9955" gradientUnits="userSpaceOnUse">
<stop stop-color="white" stop-opacity="0.1"/>
<stop offset="0.413462" stop-color="white"/>
<stop offset="1" stop-color="white" stop-opacity="0.03"/>
</linearGradient>
</defs>
</svg>
