<svg preserveAspectRatio="xMidYMid meet" overflow="visible" style="display: block;" viewBox="0 0 590 590" fill="none" xmlns="http://www.w3.org/2000/svg">
<g id="Group 8162">
<g id="Ellipse 8054" opacity="0.14" filter="url(#filter0_f_0_4)">
<circle cx="295" cy="295" r="191" fill="url(#paint0_linear_0_4)"/>
</g>
<g id="Ellipse 8062" opacity="0.14" filter="url(#filter1_f_0_4)">
<circle cx="295" cy="295" r="141" fill="url(#paint1_linear_0_4)"/>
</g>
<circle id="Ellipse 8061" cx="295" cy="295.35" r="131" fill="url(#paint2_linear_0_4)" fill-opacity="0.29"/>
<g id="Vector" filter="url(#filter3_iii_0_4)">
<path d="M354 239L353.865 358H235L235.12 239H354ZM351.056 241.836H237.772V355.284H351.056V241.836Z" fill="var(--fill-0, #E6C56B)"/>
<path d="M289.128 268.283L288.716 271.712L281.854 270.219L281.457 273.917L273.755 274.015L275.111 277.354C270.908 276.078 267.26 275.696 263.012 276.859C265.806 270.151 275.433 265.034 282.408 263.294C285.892 262.423 289.413 262.251 293.009 262.416C297.916 262.641 302.434 264.224 306.457 266.925C309.521 268.981 312.405 271.284 313.761 275.155L308.712 271.779L307.82 273.01L299.415 268.32L298.253 271.179L289.128 268.283Z" fill="var(--fill-0, #E6C56B)"/>
<path d="M268.728 309.75C268.271 306.472 267.904 303.193 268.413 299.614C268.316 307.169 272.969 313.449 280.288 315.542C284.678 316.803 288.949 317.17 293.399 315.482C289.271 322.932 279.441 324.433 271.972 320.839C271.77 325.326 269.035 328.447 265.844 331.118C263.491 333.084 261.109 335.117 257.76 335.394C263.454 331.05 266.833 319.669 266.428 312.781L265.754 301.25C266.473 304.011 267.005 308.1 268.818 310.756L268.736 309.743L268.728 309.75Z" fill="var(--fill-0, #E6C56B)"/>
<path d="M300.763 289.943C302.314 293.109 302.719 296.411 302.831 299.862C300.059 301.49 298.463 301.94 295.436 301.04C290.417 299.554 287.285 294.445 288.889 289.163C289.705 290.964 290.881 292.224 292.709 292.779C296.088 293.582 297.939 292.337 300.756 289.943H300.763Z" fill="var(--fill-0, #E6C56B)"/>
<path d="M318.361 311.904L320.272 308.287L318.556 308.077C318.466 306.704 318.833 305.639 319.8 305.031C320.946 306.412 322.19 307.132 323.756 306.884C325.014 306.682 326.318 305.384 326.31 303.891C326.31 302.007 324.834 300.83 323.224 300.845C321.373 300.86 320.032 301.827 319.628 303.891C318.744 303.238 318.302 302.06 318.466 301.092C318.983 298.061 321.725 296.628 324.557 297.116C328.43 297.783 330.813 301.212 329.712 305.204C328.43 309.863 323.546 312.039 320.811 316.128L318.564 316.075L320.751 312.174L318.361 311.911V311.904Z" fill="var(--fill-0, #E6C56B)"/>
<path d="M328.288 288.96C328.288 288.96 324.175 281.93 321.778 280.557C321.673 280.497 323.636 273.857 320.047 271.201C322.092 270.744 324.272 271.322 326.123 272.747C331.307 276.708 332.948 283.528 328.296 288.96H328.288Z" fill="var(--fill-0, #E6C56B)"/>
<path d="M315.649 308.13L317.56 311.994L315.395 312.181L317.972 316.083L315.942 316.053C313.926 313.524 311.694 311.686 309.132 309.75C306.569 307.815 305.048 304.056 306.704 300.972C308.27 298.061 312.083 297.018 315.013 298.339C316.076 298.819 316.901 299.967 317.088 300.612C317.26 302.27 317.208 303.471 315.769 304.183C315.035 302.293 313.746 301.452 312.113 301.707C310.735 301.925 309.334 303.125 309.491 304.874C309.618 306.299 310.982 307.462 312.143 307.627C313.814 307.86 314.968 307.064 315.807 305.189C316.803 305.729 317.245 306.682 317.35 307.987L315.642 308.137L315.649 308.13Z" fill="var(--fill-0, #E6C56B)"/>
<path d="M265.776 297.686C260.959 297.603 258.659 301.415 258.809 306.479C256.584 303.561 255.887 299.734 256.846 296.32C258.112 291.834 261.648 288.503 266.338 289.388C265.582 292.509 265.926 295.008 265.784 297.686H265.776Z" fill="var(--fill-0, #E6C56B)"/>
<path d="M276.175 305.684C276.475 303.245 276.302 301.25 274.931 299.644C273.56 298.039 271.62 297.123 268.983 297.551C269.432 294.955 270.639 291.991 272.099 290.041C273.343 290.281 274.325 290.663 275.216 291.196C277.201 292.389 278.602 294.415 279.037 296.696C279.636 299.862 278.797 303.26 276.183 305.691L276.175 305.684Z" fill="var(--fill-0, #E6C56B)"/>
<path d="M319.403 323.158C319.8 325.701 320.437 327.854 322.467 329.827L315.724 330.06C317.455 328.079 317.785 325.866 317.815 323.045L318.669 324.313L319.395 323.165L319.403 323.158Z" fill="var(--fill-0, #E6C56B)"/>
<path d="M323.059 305.391C323.907 305.391 324.595 304.703 324.595 303.853C324.595 303.004 323.907 302.315 323.059 302.315C322.211 302.315 321.523 303.004 321.523 303.853C321.523 304.703 322.211 305.391 323.059 305.391Z" fill="var(--fill-0, #E6C56B)"/>
<path d="M312.638 306.104C313.482 306.104 314.166 305.419 314.166 304.573C314.166 303.728 313.482 303.043 312.638 303.043C311.794 303.043 311.109 303.728 311.109 304.573C311.109 305.419 311.794 306.104 312.638 306.104Z" fill="var(--fill-0, #E6C56B)"/>
<path d="M313.634 313.502C313.634 313.502 317.043 316.128 317.822 323.045L317.979 326.024L319.103 325.813L318.676 324.313V316.075L315.395 312.181L313.627 313.509L313.634 313.502Z" fill="var(--fill-0, #E6C56B)"/>
<path d="M323.059 313.472C323.059 313.472 320.414 316.128 319.635 323.053L319.478 326.031L318.354 325.821L318.511 324.185L318.354 316.083L322.055 312.181L323.051 313.472H323.059Z" fill="var(--fill-0, #E6C56B)"/>
<path d="M329.614 298.474C329.614 298.474 326.587 284.414 315.987 278.201C315.987 278.201 317.852 285.802 316.833 292.667C316.833 292.667 312.638 286.379 300.014 286.544C300.014 286.544 304.996 289.636 305.161 300.627C305.161 300.627 307.176 294.31 313.05 295.473C313.05 295.473 315.762 296.08 317.747 298.504C317.747 298.504 319.036 295.135 321.718 294.287C323.988 293.567 326.79 294.302 329.607 298.481L329.614 298.474Z" fill="#E6C46A"/>
<path d="M314.541 277.436C314.541 277.436 302.044 269.048 288.282 272.695C274.519 276.341 271.081 281.165 268.698 285.764C268.698 285.764 266.061 290.543 267.2 303.05C267.2 303.05 266.945 286.95 278.43 283.941C289.915 280.932 298.516 285.404 298.516 285.404L300.913 281.638C300.913 281.638 296.89 278.404 294.058 277.729C294.058 277.729 299.767 276.386 303.46 277.354L304.996 274.713C304.996 274.713 308.555 277.541 309.971 278.209L314.533 277.436H314.541Z" fill="#E6C46A"/>
<path d="M305.461 285.727L308.652 283.513L302.254 283.003L304.037 281.728C301.827 280.122 299.984 279.267 297.692 278.337C300.306 278.262 302.599 278.629 305.123 279.109L305.476 276.934L310.45 281.053L310.99 279.207C314.368 281.383 315.589 285.059 315.702 289.05C312.937 286.229 309.761 285.652 305.461 285.727Z" fill="var(--fill-0, #E6C56B)"/>
</g>
</g>
<defs>
<filter id="filter0_f_0_4" x="0" y="0" width="590" height="590" filterUnits="userSpaceOnUse" color-interpolation-filters="sRGB">
<feFlood flood-opacity="0" result="BackgroundImageFix"/>
<feBlend mode="normal" in="SourceGraphic" in2="BackgroundImageFix" result="shape"/>
<feGaussianBlur stdDeviation="52" result="effect1_foregroundBlur_0_4"/>
</filter>
<filter id="filter1_f_0_4" x="130" y="130" width="330" height="330" filterUnits="userSpaceOnUse" color-interpolation-filters="sRGB">
<feFlood flood-opacity="0" result="BackgroundImageFix"/>
<feBlend mode="normal" in="SourceGraphic" in2="BackgroundImageFix" result="shape"/>
<feGaussianBlur stdDeviation="12" result="effect1_foregroundBlur_0_4"/>
</filter>
<filter id="filter3_iii_0_4" x="233" y="237" width="122" height="123" filterUnits="userSpaceOnUse" color-interpolation-filters="sRGB">
<feFlood flood-opacity="0" result="BackgroundImageFix"/>
<feBlend mode="normal" in="SourceGraphic" in2="BackgroundImageFix" result="shape"/>
<feColorMatrix in="SourceAlpha" type="matrix" values="0 0 0 0 0 0 0 0 0 0 0 0 0 0 0 0 0 0 127 0" result="hardAlpha"/>
<feOffset dx="1" dy="2"/>
<feGaussianBlur stdDeviation="1"/>
<feComposite in2="hardAlpha" operator="arithmetic" k2="-1" k3="1"/>
<feColorMatrix type="matrix" values="0 0 0 0 1 0 0 0 0 1 0 0 0 0 1 0 0 0 0.67 0"/>
<feBlend mode="normal" in2="shape" result="effect1_innerShadow_0_4"/>
<feColorMatrix in="SourceAlpha" type="matrix" values="0 0 0 0 0 0 0 0 0 0 0 0 0 0 0 0 0 0 127 0" result="hardAlpha"/>
<feOffset dy="-3"/>
<feGaussianBlur stdDeviation="1"/>
<feComposite in2="hardAlpha" operator="arithmetic" k2="-1" k3="1"/>
<feColorMatrix type="matrix" values="0 0 0 0 0 0 0 0 0 0 0 0 0 0 0 0 0 0 0.23 0"/>
<feBlend mode="normal" in2="effect1_innerShadow_0_4" result="effect2_innerShadow_0_4"/>
<feColorMatrix in="SourceAlpha" type="matrix" values="0 0 0 0 0 0 0 0 0 0 0 0 0 0 0 0 0 0 127 0" result="hardAlpha"/>
<feOffset dx="-2" dy="-2"/>
<feGaussianBlur stdDeviation="1"/>
<feComposite in2="hardAlpha" operator="arithmetic" k2="-1" k3="1"/>
<feColorMatrix type="matrix" values="0 0 0 0 0.89979 0 0 0 0 0.89979 0 0 0 0 0.89979 0 0 0 0.25 0"/>
<feBlend mode="normal" in2="effect2_innerShadow_0_4" result="effect3_innerShadow_0_4"/>
</filter>
<linearGradient id="paint0_linear_0_4" x1="104" y1="104.815" x2="486" y2="485.184" gradientUnits="userSpaceOnUse">
<stop/>
<stop offset="0.427885" stop-color="#E6C56B"/>
<stop offset="0.754808"/>
</linearGradient>
<linearGradient id="paint1_linear_0_4" x1="154" y1="154.602" x2="436" y2="435.398" gradientUnits="userSpaceOnUse">
<stop/>
<stop offset="0.427885" stop-color="#E6C56B"/>
<stop offset="0.754808"/>
</linearGradient>
<linearGradient id="paint2_linear_0_4" x1="273.183" y1="157.35" x2="350.085" y2="444.35" gradientUnits="userSpaceOnUse">
<stop stop-color="#929292"/>
<stop offset="1" stop-color="#060606"/>
</linearGradient>
</defs>
</svg>
