<svg preserveAspectRatio="xMidYMid meet" overflow="visible" style="display: block;" viewBox="0 0 232 282" fill="none" xmlns="http://www.w3.org/2000/svg">
<g id="Vector" filter="url(#filter0_iii_0_4)">
<mask id="path-1-inside-1_0_4" fill="white">
<path d="M215.37 195.835C222.043 189.328 227.414 181.585 231.201 173.053C229.159 187.928 225.002 202.446 218.877 216.131C210.029 236.396 195.264 253.476 176.519 265.06C156.279 276.794 133.184 282.631 109.838 281.946H67.036C69.6251 275.201 70.9271 268.009 70.8531 260.772C71.223 246.075 65.4826 231.885 55.0225 221.625C44.4589 211.202 30.1226 205.559 15.3276 206.005C10.1641 205.976 5.0155 206.571 0 207.807V0.0573185H109.823C133.036 -0.627636 156.028 4.83711 176.489 15.8708C195.101 26.6068 209.911 42.9265 218.847 62.5669C225.845 77.8443 230.299 94.1641 232 110.901C228.198 101.58 222.531 93.1516 215.356 86.1234C200.546 71.516 180.454 63.6092 159.712 64.2346C138.969 63.5943 118.878 71.516 104.053 86.1382C89.3912 100.522 81.3428 120.416 81.8754 141.024C81.328 161.632 89.3765 181.526 104.053 195.895C118.863 210.532 138.954 218.454 159.712 217.828C180.454 218.439 200.546 210.517 215.356 195.895"/>
</mask>
<path d="M215.37 195.835C222.043 189.328 227.414 181.585 231.201 173.053C229.159 187.928 225.002 202.446 218.877 216.131C210.029 236.396 195.264 253.476 176.519 265.06C156.279 276.794 133.184 282.631 109.838 281.946H67.036C69.6251 275.201 70.9271 268.009 70.8531 260.772C71.223 246.075 65.4826 231.885 55.0225 221.625C44.4589 211.202 30.1226 205.559 15.3276 206.005C10.1641 205.976 5.0155 206.571 0 207.807V0.0573185H109.823C133.036 -0.627636 156.028 4.83711 176.489 15.8708C195.101 26.6068 209.911 42.9265 218.847 62.5669C225.845 77.8443 230.299 94.1641 232 110.901C228.198 101.58 222.531 93.1516 215.356 86.1234C200.546 71.516 180.454 63.6092 159.712 64.2346C138.969 63.5943 118.878 71.516 104.053 86.1382C89.3912 100.522 81.3428 120.416 81.8754 141.024C81.328 161.632 89.3765 181.526 104.053 195.895C118.863 210.532 138.954 218.454 159.712 217.828C180.454 218.439 200.546 210.517 215.356 195.895" fill="url(#paint0_linear_0_4)" fill-opacity="0.6"/>
<path d="M231.201 173.053L232.192 173.189L230.287 172.647L231.201 173.053ZM218.877 216.131L217.964 215.722L217.96 215.731L218.877 216.131ZM176.519 265.06L177.02 265.925L177.033 265.918L177.045 265.911L176.519 265.06ZM109.838 281.946L109.867 280.946L109.853 280.946H109.838V281.946ZM67.036 281.946L66.1024 281.588L65.581 282.946H67.036V281.946ZM70.8531 260.772L69.8534 260.747L69.853 260.764L69.8532 260.782L70.8531 260.772ZM55.0225 221.625L54.3201 222.337L54.3223 222.339L55.0225 221.625ZM15.3276 206.005L15.3218 207.005L15.3398 207.005L15.3578 207.005L15.3276 206.005ZM0 207.807H-1V209.083L0.239259 208.778L0 207.807ZM0 0.0573185V-0.942682H-1V0.0573185H0ZM109.823 0.0573185V1.05732H109.838L109.853 1.05688L109.823 0.0573185ZM176.489 15.8708L176.989 15.0046L176.977 14.9975L176.964 14.9907L176.489 15.8708ZM218.847 62.5669L217.937 62.981L217.938 62.9833L218.847 62.5669ZM232 110.901L231.074 111.279L232.995 110.8L232 110.901ZM215.356 86.1234L214.653 86.8353L214.656 86.8378L215.356 86.1234ZM159.712 64.2346L159.681 65.2341L159.711 65.2351L159.742 65.2341L159.712 64.2346ZM104.053 86.1382L104.753 86.8521L104.755 86.8502L104.053 86.1382ZM81.8754 141.024L82.875 141.051L82.8757 141.024L82.8751 140.998L81.8754 141.024ZM104.053 195.895L104.756 195.184L104.753 195.18L104.053 195.895ZM159.712 217.828L159.741 216.829L159.711 216.828L159.682 216.829L159.712 217.828ZM215.37 195.835L216.069 196.551C222.833 189.955 228.276 182.106 232.115 173.459L231.201 173.053L230.287 172.647C226.551 181.064 221.253 188.702 214.672 195.119L215.37 195.835ZM231.201 173.053L230.21 172.917C228.182 187.698 224.05 202.125 217.964 215.722L218.877 216.131L219.79 216.539C225.953 202.768 230.137 188.159 232.192 173.189L231.201 173.053ZM218.877 216.131L217.96 215.731C209.194 235.811 194.564 252.733 175.993 264.21L176.519 265.06L177.045 265.911C195.964 254.219 210.865 236.982 219.793 216.531L218.877 216.131ZM176.519 265.06L176.017 264.195C155.939 275.835 133.028 281.626 109.867 280.946L109.838 281.946L109.809 282.946C133.341 283.636 156.62 277.752 177.02 265.925L176.519 265.06ZM109.838 281.946V280.946H67.036V281.946V282.946H109.838V281.946ZM67.036 281.946L67.9696 282.304C70.6037 275.442 71.9283 268.125 71.8531 260.762L70.8531 260.772L69.8532 260.782C69.9259 267.892 68.6466 274.959 66.1024 281.588L67.036 281.946ZM70.8531 260.772L71.8528 260.797C72.2296 245.824 66.3814 231.366 55.7227 220.911L55.0225 221.625L54.3223 222.339C64.5837 232.404 70.2164 246.326 69.8534 260.747L70.8531 260.772ZM55.0225 221.625L55.7249 220.913C44.9674 210.299 30.3666 204.551 15.2974 205.006L15.3276 206.005L15.3578 207.005C29.8785 206.566 43.9504 212.105 54.3201 222.337L55.0225 221.625ZM15.3276 206.005L15.3334 205.005C10.0892 204.975 4.85818 205.58 -0.239259 206.836L0 207.807L0.239259 208.778C5.17281 207.562 10.2391 206.976 15.3218 207.005L15.3276 206.005ZM0 207.807H1V0.0573185H0H-1V207.807H0ZM0 0.0573185V1.05732H109.823V0.0573185V-0.942682H0V0.0573185ZM109.823 0.0573185L109.853 1.05688C132.89 0.377131 155.707 5.80036 176.015 16.751L176.489 15.8708L176.964 14.9907C156.348 3.87386 133.183 -1.6324 109.794 -0.942246L109.823 0.0573185ZM176.489 15.8708L175.99 16.7371C194.42 27.3684 209.087 43.5298 217.937 62.981L218.847 62.5669L219.757 62.1527C210.735 42.3232 195.782 25.8451 176.989 15.0046L176.489 15.8708ZM218.847 62.5669L217.938 62.9833C224.891 78.1616 229.315 94.375 231.005 111.002L232 110.901L232.995 110.8C231.282 93.9533 226.8 77.527 219.756 62.1504L218.847 62.5669ZM232 110.901L232.926 110.523C229.072 101.075 223.328 92.5327 216.055 85.409L215.356 86.1234L214.656 86.8378C221.734 93.7705 227.323 102.084 231.074 111.279L232 110.901ZM215.356 86.1234L216.058 85.4114C201.054 70.6127 180.698 62.6014 159.682 63.2351L159.712 64.2346L159.742 65.2341C180.21 64.617 200.038 72.4192 214.653 86.8353L215.356 86.1234ZM159.712 64.2346L159.743 63.2351C138.725 62.5863 118.369 70.6132 103.351 85.4263L104.053 86.1382L104.755 86.8502C119.386 72.4187 139.214 64.6023 159.681 65.2341L159.712 64.2346ZM104.053 86.1382L103.353 85.4244C88.4924 100.003 80.336 120.165 80.8757 141.05L81.8754 141.024L82.8751 140.998C82.3496 120.667 90.2901 101.041 104.753 86.8521L104.053 86.1382ZM81.8754 141.024L80.8757 140.997C80.321 161.883 88.4776 182.045 103.353 196.609L104.053 195.895L104.753 195.18C90.2753 181.006 82.335 161.381 82.875 141.051L81.8754 141.024ZM104.053 195.895L103.35 196.606C118.354 211.435 138.71 219.461 159.742 218.828L159.712 217.828L159.682 216.829C139.199 217.446 119.372 209.629 104.756 195.184L104.053 195.895ZM159.712 217.828L159.682 218.828C180.699 219.446 201.055 211.42 216.058 196.606L215.356 195.895L214.653 195.183C200.037 209.614 180.21 217.431 159.741 216.829L159.712 217.828Z" fill="url(#paint1_linear_0_4)" fill-opacity="0.5" mask="url(#path-1-inside-1_0_4)"/>
</g>
<defs>
<filter id="filter0_iii_0_4" x="-2" y="-2" width="235" height="286" filterUnits="userSpaceOnUse" color-interpolation-filters="sRGB">
<feFlood flood-opacity="0" result="BackgroundImageFix"/>
<feBlend mode="normal" in="SourceGraphic" in2="BackgroundImageFix" result="shape"/>
<feColorMatrix in="SourceAlpha" type="matrix" values="0 0 0 0 0 0 0 0 0 0 0 0 0 0 0 0 0 0 127 0" result="hardAlpha"/>
<feOffset dx="1" dy="2"/>
<feGaussianBlur stdDeviation="1"/>
<feComposite in2="hardAlpha" operator="arithmetic" k2="-1" k3="1"/>
<feColorMatrix type="matrix" values="0 0 0 0 1 0 0 0 0 1 0 0 0 0 1 0 0 0 0.67 0"/>
<feBlend mode="normal" in2="shape" result="effect1_innerShadow_0_4"/>
<feColorMatrix in="SourceAlpha" type="matrix" values="0 0 0 0 0 0 0 0 0 0 0 0 0 0 0 0 0 0 127 0" result="hardAlpha"/>
<feOffset dy="-3"/>
<feGaussianBlur stdDeviation="1"/>
<feComposite in2="hardAlpha" operator="arithmetic" k2="-1" k3="1"/>
<feColorMatrix type="matrix" values="0 0 0 0 0 0 0 0 0 0 0 0 0 0 0 0 0 0 0.23 0"/>
<feBlend mode="normal" in2="effect1_innerShadow_0_4" result="effect2_innerShadow_0_4"/>
<feColorMatrix in="SourceAlpha" type="matrix" values="0 0 0 0 0 0 0 0 0 0 0 0 0 0 0 0 0 0 127 0" result="hardAlpha"/>
<feOffset dx="-2" dy="-2"/>
<feGaussianBlur stdDeviation="1"/>
<feComposite in2="hardAlpha" operator="arithmetic" k2="-1" k3="1"/>
<feColorMatrix type="matrix" values="0 0 0 0 0.89979 0 0 0 0 0.89979 0 0 0 0 0.89979 0 0 0 0.25 0"/>
<feBlend mode="normal" in2="effect2_innerShadow_0_4" result="effect3_innerShadow_0_4"/>
</filter>
<linearGradient id="paint0_linear_0_4" x1="375.451" y1="82.9871" x2="418.015" y2="358.657" gradientUnits="userSpaceOnUse">
<stop stop-color="white"/>
<stop offset="1" stop-color="white" stop-opacity="0"/>
</linearGradient>
<linearGradient id="paint1_linear_0_4" x1="56.6556" y1="-19.5111" x2="184.444" y2="258" gradientUnits="userSpaceOnUse">
<stop stop-color="white" stop-opacity="0.1"/>
<stop offset="0.413462" stop-color="white"/>
<stop offset="1" stop-color="white" stop-opacity="0.03"/>
</linearGradient>
</defs>
</svg>
